<svg xmlns="http://www.w3.org/2000/svg"  viewBox="0 0 24 24" width="24px" height="24px"><path d="M 2.5 0 C 1.121 0 0 1.122 0 2.5 L 0 9.5 C 0 10.878 1.121 12 2.5 12 L 8.0546875 12 L 11.160156 14.867188 C 11.254156 14.954188 11.377 15 11.5 15 C 11.567 15 11.635219 14.985031 11.699219 14.957031 C 11.882219 14.877031 12 14.698 12 14.5 L 12 12 L 13.5 12 C 14.879 12 16 10.878 16 9.5 L 16 2.5 C 16 1.122 14.879 0 13.5 0 L 2.5 0 z M 2.5 1 L 13.5 1 C 14.327 1 15 1.673 15 2.5 L 15 9.5 C 15 10.327 14.327 11 13.5 11 L 11.5 11 C 11.224 11 11 11.224 11 11.5 L 11 13.357422 L 8.5898438 11.132812 C 8.4978438 11.046812 8.376 11 8.25 11 L 2.5 11 C 1.673 11 1 10.327 1 9.5 L 1 2.5 C 1 1.673 1.673 1 2.5 1 z M 8.4042969 3.0097656 C 8.2150156 3.0486719 8.0502656 3.1983438 8.0097656 3.4023438 L 7.0097656 8.4023438 C 6.9547656 8.6733438 7.1313438 8.9362344 7.4023438 8.9902344 C 7.4353437 8.9972344 7.4689531 9 7.5019531 9 C 7.7349531 9 7.9422344 8.8356563 7.9902344 8.5976562 L 8.9902344 3.5976562 C 9.0452344 3.3266562 8.8686562 3.0637656 8.5976562 3.0097656 C 8.5326562 2.9962656 8.4673906 2.9967969 8.4042969 3.0097656 z M 5 3.5 C 4.872 3.5 4.7439844 3.5489844 4.6464844 3.6464844 L 2.6464844 5.6464844 C 2.4514844 5.8414844 2.4514844 6.1585156 2.6464844 6.3535156 L 4.6464844 8.3535156 C 4.7444844 8.4505156 4.872 8.5 5 8.5 C 5.128 8.5 5.2565156 8.4515156 5.3535156 8.3535156 C 5.5485156 8.1585156 5.5485156 7.8414844 5.3535156 7.6464844 L 3.7070312 6 L 5.3535156 4.3535156 C 5.5485156 4.1585156 5.5485156 3.8414844 5.3535156 3.6464844 C 5.2560156 3.5489844 5.128 3.5 5 3.5 z M 11 3.5 C 10.872 3.5 10.743984 3.5489844 10.646484 3.6464844 C 10.451484 3.8414844 10.451484 4.1585156 10.646484 4.3535156 L 12.292969 6 L 10.646484 7.6464844 C 10.451484 7.8414844 10.451484 8.1585156 10.646484 8.3535156 C 10.744484 8.4505156 10.872 8.5 11 8.5 C 11.128 8.5 11.255516 8.4505156 11.353516 8.3535156 L 13.353516 6.3535156 C 13.548516 6.1585156 13.548516 5.8414844 13.353516 5.6464844 L 11.353516 3.6464844 C 11.256016 3.5489844 11.128 3.5 11 3.5 z M 18.5 11.5 C 16.846 11.5 15.5 12.846 15.5 14.5 C 15.5 16.154 16.846 17.5 18.5 17.5 C 20.154 17.5 21.5 16.154 21.5 14.5 C 21.5 12.846 20.154 11.5 18.5 11.5 z M 18.5 12.5 C 19.603 12.5 20.5 13.397 20.5 14.5 C 20.5 15.603 19.603 16.5 18.5 16.5 C 17.397 16.5 16.5 15.603 16.5 14.5 C 16.5 13.397 17.397 12.5 18.5 12.5 z M 4 15 C 2.897 15 2 15.897 2 17 C 2 18.103 2.897 19 4 19 C 5.103 19 6 18.103 6 17 C 6 15.897 5.103 15 4 15 z M 4 16 C 4.552 16 5 16.448 5 17 C 5 17.552 4.552 18 4 18 C 3.448 18 3 17.552 3 17 C 3 16.448 3.448 16 4 16 z M 15.5 19 C 14.121 19 13 20.121 13 21.5 L 13 23.5 C 13 23.776 13.224 24 13.5 24 C 13.776 24 14 23.776 14 23.5 L 14 21.5 C 14 20.673 14.673 20 15.5 20 L 21.5 20 C 22.327 20 23 20.673 23 21.5 L 23 23.5 C 23 23.776 23.224 24 23.5 24 C 23.776 24 24 23.776 24 23.5 L 24 21.5 C 24 20.121 22.879 19 21.5 19 L 15.5 19 z M 2.5 20 C 1.121 20 0 21.121 0 22.5 L 0 23.5 C 0 23.776 0.224 24 0.5 24 C 0.776 24 1 23.776 1 23.5 L 1 22.5 C 1 21.673 1.673 21 2.5 21 L 5.5 21 C 6.327 21 7 21.673 7 22.5 L 7 23.5 C 7 23.776 7.224 24 7.5 24 C 7.776 24 8 23.776 8 23.5 L 8 22.5 C 8 21.121 6.879 20 5.5 20 L 2.5 20 z"/></svg>